# Blender v2.91.2 OBJ File: ''
# www.blender.org
mtllib cube_cylinder_cy.mtl
o Cylinder
v 0.000000 0.000000 -1.000000
v 0.000000 2.000000 -1.000000
v 0.195090 0.000000 -0.980785
v 0.195090 2.000000 -0.980785
v 0.382683 0.000000 -0.923880
v 0.382683 2.000000 -0.923880
v 0.555570 0.000000 -0.831470
v 0.555570 2.000000 -0.831470
v 0.707107 0.000000 -0.707107
v 0.707107 2.000000 -0.707107
v 0.831470 0.000000 -0.555570
v 0.831470 2.000000 -0.555570
v 0.923880 0.000000 -0.382683
v 0.923880 2.000000 -0.382683
v 0.980785 0.000000 -0.195090
v 0.980785 2.000000 -0.195090
v 1.000000 0.000000 -0.000000
v 1.000000 2.000000 -0.000000
v 0.980785 0.000000 0.195090
v 0.980785 2.000000 0.195090
v 0.923880 0.000000 0.382683
v 0.923880 2.000000 0.382683
v 0.831470 0.000000 0.555570
v 0.831470 2.000000 0.555570
v 0.707107 0.000000 0.707107
v 0.707107 2.000000 0.707107
v 0.555570 0.000000 0.831470
v 0.555570 2.000000 0.831470
v 0.382683 0.000000 0.923880
v 0.382683 2.000000 0.923880
v 0.195090 0.000000 0.980785
v 0.195090 2.000000 0.980785
v -0.000000 0.000000 1.000000
v -0.000000 2.000000 1.000000
v -0.195091 0.000000 0.980785
v -0.195091 2.000000 0.980785
v -0.382684 0.000000 0.923879
v -0.382684 2.000000 0.923879
v -0.555571 0.000000 0.831469
v -0.555571 2.000000 0.831469
v -0.707107 0.000000 0.707106
v -0.707107 2.000000 0.707106
v -0.831470 0.000000 0.555570
v -0.831470 2.000000 0.555570
v -0.923880 0.000000 0.382683
v -0.923880 2.000000 0.382683
v -0.980785 0.000000 0.195089
v -0.980785 2.000000 0.195089
v -1.000000 0.000000 -0.000001
v -1.000000 2.000000 -0.000001
v -0.980785 0.000000 -0.195091
v -0.980785 2.000000 -0.195091
v -0.923879 0.000000 -0.382684
v -0.923879 2.000000 -0.382684
v -0.831469 0.000000 -0.555571
v -0.831469 2.000000 -0.555571
v -0.707106 0.000000 -0.707108
v -0.707106 2.000000 -0.707108
v -0.555569 0.000000 -0.831470
v -0.555569 2.000000 -0.831470
v -0.382682 0.000000 -0.923880
v -0.382682 2.000000 -0.923880
v -0.195089 0.000000 -0.980786
v -0.195089 2.000000 -0.980786
v 1.000000 1.000000 -1.000000
v 1.000000 -1.000000 -1.000000
v 1.000000 1.000000 1.000000
v 1.000000 -1.000000 1.000000
v -1.000000 1.000000 -1.000000
v -1.000000 -1.000000 -1.000000
v -1.000000 1.000000 1.000000
v -1.000000 -1.000000 1.000000
vt 0.805454 0.115306
vt 0.726862 1.082768
vt 0.698222 1.058125
vt 0.777071 0.090663
vt 0.670811 1.033412
vt 0.747710 0.065950
vt 0.644293 1.009578
vt 0.717064 0.042116
vt 0.618406 0.987540
vt 0.684804 0.020077
vt 0.592951 0.968143
vt 0.650619 0.000681
vt 0.567780 0.952134
vt 0.614299 -0.015328
vt 0.542789 0.940127
vt 0.575849 -0.027335
vt 0.517900 0.932585
vt 0.535607 -0.034877
vt 0.493059 0.929797
vt 0.494292 -0.037666
vt 0.468221 0.931869
vt 0.452900 -0.035593
vt 0.443342 0.938723
vt 0.412445 -0.028739
vt 0.418370 0.950096
vt 0.373700 -0.017367
vt 0.393232 0.965549
vt 0.337058 -0.001914
vt 0.367827 0.984489
vt 0.302567 0.017027
vt 0.342014 1.006189
vt 0.270040 0.038726
vt 0.315604 1.029814
vt 0.239177 0.062351
vt 0.288345 1.054456
vt 0.209647 0.086994
vt 0.259910 1.079170
vt 0.181137 0.111707
vt 0.229896 1.103003
vt 0.153377 0.135541
vt 0.197816 1.125042
vt 0.126143 0.157580
vt 0.163144 1.144439
vt 0.099260 0.176976
vt 0.125409 1.160448
vt 0.072600 0.192985
vt 0.084398 1.172454
vt 0.046069 0.204992
vt 0.040443 1.179997
vt 0.019608 0.212534
vt 1.019608 0.212534
vt 1.040443 1.179997
vt 0.994636 1.182785
vt 0.993176 0.215323
vt 0.948692 1.180712
vt 0.966746 0.213250
vt 0.904376 1.173858
vt 0.940292 0.206396
vt 0.862892 1.162486
vt 0.913775 0.195024
vt 0.824677 1.147033
vt 0.887138 0.179570
vt 0.789579 1.128093
vt 0.860296 0.160630
vt 0.757150 1.106393
vt 1.084398 1.172454
vt 1.125409 1.160448
vt 1.163144 1.144439
vt 1.197816 1.125042
vt 1.229895 1.103003
vt 1.259910 1.079170
vt 1.288345 1.054456
vt 1.315604 1.029814
vt 1.342014 1.006189
vt 1.367827 0.984489
vt 1.393232 0.965549
vt 1.418370 0.950096
vt 1.443342 0.938723
vt 1.468221 0.931869
vt 1.493059 0.929797
vt 0.833124 0.138930
vt 1.452900 -0.035593
vt 1.412445 -0.028739
vt 1.373700 -0.017367
vt 1.337058 -0.001914
vt 1.302567 0.017027
vt 1.270041 0.038726
vt 1.239177 0.062351
vt 1.209647 0.086994
vt 1.181137 0.111707
vt 1.153377 0.135541
vt 1.126143 0.157580
vt 1.099260 0.176976
vt 1.072600 0.192985
vt 1.046069 0.204992
vt 0.648566 0.475331
vt 0.894878 0.722742
vt 1.155875 0.669788
vt 0.399741 0.422377
vt 0.356558 -0.545086
vt 0.155875 0.669788
vt 0.114600 -0.297674
vt 1.114600 -0.297674
vt 0.920593 -0.244720
vt 0.704935 -0.492131
vt 1.356558 -0.545086
vn 0.0980 0.0000 -0.9952
vn 0.2903 0.0000 -0.9569
vn 0.4714 0.0000 -0.8819
vn 0.6344 0.0000 -0.7730
vn 0.7730 0.0000 -0.6344
vn 0.8819 0.0000 -0.4714
vn 0.9569 0.0000 -0.2903
vn 0.9952 0.0000 -0.0980
vn 0.9952 0.0000 0.0980
vn 0.9569 0.0000 0.2903
vn 0.8819 0.0000 0.4714
vn 0.7730 0.0000 0.6344
vn 0.6344 0.0000 0.7730
vn 0.4714 0.0000 0.8819
vn 0.2903 0.0000 0.9569
vn 0.0980 0.0000 0.9952
vn -0.0980 0.0000 0.9952
vn -0.2903 0.0000 0.9569
vn -0.4714 0.0000 0.8819
vn -0.6344 0.0000 0.7730
vn -0.7730 0.0000 0.6344
vn -0.8819 0.0000 0.4714
vn -0.9569 0.0000 0.2903
vn -0.9952 0.0000 0.0980
vn -0.9952 0.0000 -0.0980
vn -0.9569 0.0000 -0.2903
vn -0.8819 0.0000 -0.4714
vn -0.7730 0.0000 -0.6344
vn -0.6344 0.0000 -0.7730
vn -0.4714 0.0000 -0.8819
vn 0.0000 1.0000 0.0000
vn -0.2903 0.0000 -0.9569
vn -0.0980 0.0000 -0.9952
vn 0.0000 -1.0000 0.0000
vn 0.0000 0.0000 1.0000
vn -1.0000 0.0000 0.0000
vn 1.0000 0.0000 0.0000
vn 0.0000 0.0000 -1.0000
usemtl Material.001
s off
f 1/1/1 2/2/1 4/3/1 3/4/1
f 3/4/2 4/3/2 6/5/2 5/6/2
f 5/6/3 6/5/3 8/7/3 7/8/3
f 7/8/4 8/7/4 10/9/4 9/10/4
f 9/10/5 10/9/5 12/11/5 11/12/5
f 11/12/6 12/11/6 14/13/6 13/14/6
f 13/14/7 14/13/7 16/15/7 15/16/7
f 15/16/8 16/15/8 18/17/8 17/18/8
f 17/18/9 18/17/9 20/19/9 19/20/9
f 19/20/10 20/19/10 22/21/10 21/22/10
f 21/22/11 22/21/11 24/23/11 23/24/11
f 23/24/12 24/23/12 26/25/12 25/26/12
f 25/26/13 26/25/13 28/27/13 27/28/13
f 27/28/14 28/27/14 30/29/14 29/30/14
f 29/30/15 30/29/15 32/31/15 31/32/15
f 31/32/16 32/31/16 34/33/16 33/34/16
f 33/34/17 34/33/17 36/35/17 35/36/17
f 35/36/18 36/35/18 38/37/18 37/38/18
f 37/38/19 38/37/19 40/39/19 39/40/19
f 39/40/20 40/39/20 42/41/20 41/42/20
f 41/42/21 42/41/21 44/43/21 43/44/21
f 43/44/22 44/43/22 46/45/22 45/46/22
f 45/46/23 46/45/23 48/47/23 47/48/23
f 47/48/24 48/47/24 50/49/24 49/50/24
f 49/51/25 50/52/25 52/53/25 51/54/25
f 51/54/26 52/53/26 54/55/26 53/56/26
f 53/56/27 54/55/27 56/57/27 55/58/27
f 55/58/28 56/57/28 58/59/28 57/60/28
f 57/60/29 58/59/29 60/61/29 59/62/29
f 59/62/30 60/61/30 62/63/30 61/64/30
f 4/3/31 2/2/31 64/65/31 62/63/31 60/61/31 58/59/31 56/57/31 54/55/31 52/53/31 50/52/31 48/66/31 46/67/31 44/68/31 42/69/31 40/70/31 38/71/31 36/72/31 34/73/31 32/74/31 30/75/31 28/76/31 26/77/31 24/78/31 22/79/31 20/80/31 18/17/31 16/15/31 14/13/31 12/11/31 10/9/31 8/7/31 6/5/31
f 61/64/32 62/63/32 64/65/32 63/81/32
f 63/81/33 64/65/33 2/2/33 1/1/33
f 1/1/34 3/4/34 5/6/34 7/8/34 9/10/34 11/12/34 13/14/34 15/16/34 17/18/34 19/20/34 21/82/34 23/83/34 25/84/34 27/85/34 29/86/34 31/87/34 33/88/34 35/89/34 37/90/34 39/91/34 41/92/34 43/93/34 45/94/34 47/95/34 49/51/34 51/54/34 53/56/34 55/58/34 57/60/34 59/62/34 61/64/34 63/81/34
f 65/96/31 69/97/31 71/98/31 67/99/31
f 68/100/35 67/99/35 71/101/35 72/102/35
f 72/103/36 71/98/36 69/97/36 70/104/36
f 70/104/34 66/105/34 68/106/34 72/103/34
f 66/105/37 65/96/37 67/99/37 68/100/37
f 70/104/38 69/97/38 65/96/38 66/105/38
