# Blender v2.91.2 OBJ File: 'cube_spherical_texture.blend'
# www.blender.org
mtllib cube_spherical_texture.mtl
o Cube
v 1.000000 1.000000 -1.000000
v 1.000000 -1.000000 -1.000000
v 1.000000 1.000000 1.000000
v 1.000000 -1.000000 1.000000
v -1.000000 1.000000 -1.000000
v -1.000000 -1.000000 -1.000000
v -1.000000 1.000000 1.000000
v -1.000000 -1.000000 1.000000
vt 0.430166 0.877555
vt 0.640278 1.017668
vt 0.961696 1.116733
vt 0.222780 0.948474
vt 0.140278 0.588348
vt -0.038304 1.116733
vt -0.069834 0.728461
vt 0.930166 0.728461
vt 0.722780 0.657543
vt 0.461696 0.489284
vt 1.140278 0.588348
vn 0.0000 1.0000 0.0000
vn 0.0000 0.0000 1.0000
vn -1.0000 0.0000 0.0000
vn 0.0000 -1.0000 0.0000
vn 1.0000 0.0000 0.0000
vn 0.0000 0.0000 -1.0000
usemtl Material
s off
f 1/1/1 5/2/1 7/3/1 3/4/1
f 4/5/2 3/4/2 7/6/2 8/7/2
f 8/8/3 7/3/3 5/2/3 6/9/3
f 6/9/4 2/10/4 4/11/4 8/8/4
f 2/10/5 1/1/5 3/4/5 4/5/5
f 6/9/6 5/2/6 1/1/6 2/10/6
